<?xml version="1.0" standalone="no"?>
<!DOCTYPE svg PUBLIC "-//W3C//DTD SVG 20010904//EN"
 "http://www.w3.org/TR/2001/REC-SVG-20010904/DTD/svg10.dtd">
<svg version="1.0" xmlns="http://www.w3.org/2000/svg"
 width="2544.000000pt" height="2544.000000pt" viewBox="0 0 2544.000000 2544.000000"
 preserveAspectRatio="xMidYMid meet">
<metadata>
Created by potrace 1.14, written by Peter Selinger 2001-2017
</metadata>
<g transform="translate(0.000000,2544.000000) scale(0.100000,-0.100000)"
fill="#000000" stroke="none">
<path d="M937 17184 c-1 -1 -20 -5 -43 -8 -64 -10 -206 -58 -224 -76 -3 -3
-25 -19 -50 -35 -167 -112 -289 -321 -294 -502 -1 -24 -5 -43 -9 -43 -5 0 -6
-4 -3 -9 3 -4 8 -35 10 -67 3 -32 8 -72 12 -89 3 -16 7 -34 8 -40 1 -5 4 -14
8 -20 3 -5 9 -25 13 -42 3 -18 11 -33 16 -33 5 0 9 -7 9 -16 0 -44 197 -274
235 -274 7 0 20 -9 30 -20 9 -10 20 -19 24 -18 3 1 29 -9 56 -21 57 -26 65
-28 160 -46 72 -13 177 -14 230 -1 17 3 39 8 50 10 11 2 32 9 46 14 15 6 30 8
33 5 3 -4 6 -1 6 5 0 6 14 13 30 17 17 4 30 11 30 16 0 5 9 9 20 9 11 0 20 5
20 10 0 6 7 10 15 10 8 0 15 3 15 8 1 4 22 22 48 41 26 18 65 56 87 83 22 27
45 55 50 61 16 18 82 159 89 189 l6 27 208 -5 c114 -2 212 -4 217 -4 6 -1 27
1 48 2 20 2 37 0 37 -4 0 -4 11 -3 24 2 13 5 26 7 29 4 2 -3 186 -7 408 -10
222 -3 406 -7 408 -10 3 -2 6 -12 7 -21 14 -94 106 -260 188 -338 80 -76 236
-165 296 -169 13 -1 15 -102 12 -861 -4 -1381 -6 -1495 -22 -1506 -8 -5 -21
-9 -28 -9 -24 0 -151 -68 -209 -112 -49 -37 -78 -64 -138 -133 -22 -25 -119
-205 -110 -205 2 0 -1 -15 -6 -32 -16 -54 -20 -89 -23 -168 -5 -126 28 -243
109 -390 22 -40 135 -154 185 -187 81 -54 191 -103 233 -103 14 0 17 -9 18
-47 1 -27 1 -52 0 -56 -1 -7 -10 -1223 -15 -1961 l-1 -279 -65 -22 c-170 -57
-317 -186 -395 -346 -108 -221 -89 -489 49 -689 30 -45 146 -167 146 -155 0 4
7 -1 16 -9 23 -24 97 -65 157 -88 250 -97 547 -34 732 156 54 54 115 137 115
155 0 6 5 11 10 11 6 0 9 3 8 8 -1 4 6 25 16 47 53 120 66 313 30 440 -10 35
-57 150 -63 155 -3 3 -13 18 -21 34 -8 16 -30 45 -48 65 -18 20 -37 41 -40 46
-32 49 -229 169 -293 178 -13 2 -25 12 -29 21 -3 10 -5 102 -4 204 4 295 16
1958 15 2050 0 81 1 83 27 94 82 33 183 85 222 116 57 44 153 146 171 180 8
15 16 29 19 32 6 6 55 110 56 122 1 4 3 10 4 13 1 3 4 10 5 15 1 6 4 12 5 15
18 36 27 202 16 282 -14 103 -84 257 -150 332 -54 62 -120 121 -148 134 -16 6
-28 15 -28 19 0 5 -6 8 -14 8 -8 0 -16 3 -18 8 -3 7 -88 43 -148 61 l-36 11 2
208 c6 671 16 2035 15 2080 0 29 4 50 9 47 5 -3 11 -1 14 4 3 5 21 12 40 15
19 4 58 19 88 35 140 76 135 72 212 146 68 64 153 191 148 218 -1 4 3 7 8 7 5
0 9 3 9 8 -1 4 0 10 1 15 1 4 3 10 5 15 1 4 5 15 8 25 4 9 9 23 11 30 3 11 80
14 403 16 219 1 509 3 646 4 180 2 247 -1 247 -9 0 -25 58 -152 93 -205 41
-62 155 -179 174 -179 7 0 13 -4 13 -9 0 -18 161 -87 250 -108 72 -17 214 -12
307 10 46 11 143 50 143 57 0 4 10 10 23 14 21 5 35 14 84 56 7 5 14 10 17 10
12 0 90 90 131 150 110 164 137 331 90 565 -7 36 -84 193 -105 216 -8 9 -28
33 -45 53 -33 40 -138 126 -153 126 -6 0 -12 4 -14 8 -4 9 -120 62 -149 67
-11 2 -28 6 -37 9 -82 25 -218 23 -332 -5 -50 -12 -90 -26 -90 -31 0 -4 -7 -8
-15 -8 -33 0 -135 -69 -205 -140 -81 -80 -132 -163 -168 -270 l-19 -55 -444
-3 c-244 -1 -534 -3 -644 -3 -161 -1 -200 1 -203 12 -2 8 -6 21 -9 29 -3 8 -7
20 -9 27 -1 7 -13 36 -27 65 -84 182 -285 341 -472 373 -11 2 -20 4 -20 5 0 9
-183 14 -236 7 -69 -9 -124 -19 -134 -25 -5 -4 -16 -8 -22 -9 -7 -2 -19 -4
-25 -6 -7 -1 -35 -15 -62 -30 -27 -15 -52 -27 -57 -27 -5 0 -9 -4 -9 -9 0 -5
-8 -12 -18 -15 -10 -4 -48 -34 -83 -69 -59 -56 -79 -81 -116 -142 -23 -37 -64
-129 -67 -150 -3 -20 -9 -20 -302 -20 -188 0 -302 4 -306 10 -5 7 -8 6 -8 0 0
-11 -106 -13 -116 -2 -3 3 -17 2 -30 -3 -13 -5 -24 -6 -24 -2 0 4 -13 7 -30 7
-16 0 -30 -4 -30 -8 0 -5 -5 -5 -12 -1 -6 4 -122 9 -257 10 -135 1 -254 3
-263 3 -11 1 -18 9 -18 20 0 18 -15 58 -48 131 -78 172 -278 332 -456 366 -12
2 -32 6 -46 10 -24 5 -178 12 -183 8z m150 -329 c53 -10 124 -48 171 -92 35
-33 90 -121 101 -163 40 -149 -20 -316 -144 -399 -170 -115 -400 -73 -507 92
-51 79 -60 105 -63 190 -3 85 11 145 51 209 28 43 103 118 120 118 6 0 17 7
24 15 7 9 15 13 18 10 3 -3 11 0 19 6 7 6 13 8 13 4 0 -4 7 -2 15 5 8 7 15 10
15 7 0 -4 10 -3 22 2 23 8 88 7 145 -4z m5471 -62 c50 -26 141 -106 143 -128
0 -5 6 -17 14 -25 34 -39 53 -191 33 -270 -24 -95 -121 -204 -215 -241 -85
-33 -207 -32 -285 4 -190 86 -272 304 -183 491 53 113 168 194 295 208 50 6
146 -13 198 -39z m-2665 -37 c116 -59 186 -165 191 -291 5 -106 -23 -180 -100
-261 -84 -88 -183 -125 -284 -105 -76 15 -133 45 -184 97 -62 63 -78 90 -97
155 -44 157 15 323 144 405 50 33 98 43 185 39 61 -2 86 -9 145 -39z m-38
-3691 c28 -13 65 -36 84 -51 33 -29 91 -105 95 -127 2 -7 8 -25 15 -41 29 -72
16 -197 -30 -287 -25 -50 -95 -117 -146 -140 -42 -19 -158 -40 -168 -30 -3 2
-18 5 -33 6 -97 2 -220 94 -274 203 -30 61 -33 74 -33 158 1 84 4 98 34 157
32 64 62 97 128 144 33 23 59 31 133 40 25 3 46 6 48 8 7 7 102 -19 147 -40z
m-47 -3660 c34 -10 62 -22 62 -26 0 -5 7 -9 15 -9 8 0 41 -26 73 -58 119 -120
141 -294 56 -440 -29 -50 -100 -122 -121 -122 -7 0 -13 -4 -13 -8 0 -5 -19
-15 -42 -22 -24 -8 -47 -16 -53 -19 -21 -11 -102 -12 -157 -1 -106 20 -203 93
-253 191 -38 73 -48 154 -31 249 24 125 160 256 287 275 24 4 45 8 46 9 6 6
78 -4 131 -19z"/>
<path d="M15150 17129 c-90 -16 -106 -20 -160 -41 -54 -22 -144 -72 -166 -93
-7 -6 -25 -22 -40 -36 -105 -90 -193 -246 -219 -389 -9 -46 -9 -197 -1 -235 4
-16 9 -39 11 -50 10 -59 65 -182 109 -246 72 -105 234 -224 355 -260 37 -11
46 -19 42 -41 -1 -6 -10 -1377 -14 -2060 l-2 -257 -45 -17 c-52 -19 -160 -74
-176 -89 -6 -5 -30 -25 -55 -44 -47 -37 -136 -138 -157 -180 -7 -14 -21 -42
-32 -61 -10 -19 -19 -43 -20 -52 0 -10 -5 -18 -12 -18 -6 0 -9 -3 -6 -6 4 -3
2 -20 -3 -37 -18 -61 -23 -103 -22 -187 1 -133 28 -223 109 -372 15 -28 154
-176 154 -164 0 4 9 -2 21 -13 43 -40 197 -110 242 -111 18 0 18 -7 3 -2094
l-2 -239 -48 -19 c-128 -50 -230 -116 -298 -194 -18 -21 -39 -43 -45 -50 -7
-7 -13 -17 -13 -23 0 -6 -4 -11 -10 -11 -5 0 -10 -6 -10 -14 0 -7 -8 -24 -19
-37 -10 -13 -24 -42 -32 -64 -8 -22 -16 -42 -19 -45 -6 -6 -8 -15 -24 -100
-12 -65 -12 -184 -1 -250 15 -84 68 -207 116 -270 147 -194 345 -292 574 -285
117 3 173 16 272 60 81 38 140 76 199 131 50 48 114 127 114 143 0 6 4 11 9
11 9 0 65 127 76 173 4 15 12 27 19 27 6 1 162 3 346 5 335 4 860 12 1381 20
l275 4 19 -57 c11 -31 22 -59 25 -62 3 -3 14 -24 25 -47 11 -24 23 -43 28 -43
4 0 7 -5 7 -11 0 -6 6 -16 13 -24 7 -7 24 -26 38 -42 84 -100 242 -189 389
-220 39 -9 190 -9 240 0 57 9 168 46 175 58 4 5 13 9 21 9 23 0 115 70 177
134 77 81 78 82 112 151 17 33 32 62 35 65 3 3 7 12 9 20 2 8 10 38 17 65 12
43 27 149 25 180 -3 42 -10 110 -11 113 -3 2 -4 5 -14 57 -4 22 -13 46 -19 54
-7 8 -10 15 -8 15 8 2 -32 84 -70 139 -127 186 -323 294 -549 301 -42 2 -183
-15 -197 -23 -2 -1 -10 -4 -18 -6 -8 -3 -22 -7 -30 -10 -8 -2 -18 -4 -20 -4
-11 0 -111 -56 -132 -75 -13 -11 -23 -16 -23 -12 0 17 -141 -134 -176 -189
-21 -33 -39 -62 -39 -65 0 -3 -4 -11 -8 -17 -5 -7 -10 -21 -12 -30 -6 -27 -31
-92 -37 -98 -3 -3 -144 -8 -314 -10 -170 -2 -469 -7 -664 -10 -195 -3 -509 -7
-696 -10 l-342 -5 -6 31 c-7 37 -66 163 -78 167 -4 2 -8 8 -8 13 0 22 -140
164 -171 174 -10 4 -19 10 -19 15 0 11 -95 57 -175 85 l-59 21 3 479 c2 264 4
740 5 1057 0 318 3 578 6 578 3 0 4 50 3 111 -1 62 0 109 4 106 3 -3 24 3 47
15 22 11 41 19 42 17 1 -15 174 102 226 153 73 72 95 103 133 179 15 30 30 61
35 70 5 9 12 33 15 52 4 20 12 37 18 40 15 5 232 9 605 11 l283 1 19 -50 c49
-134 149 -267 243 -323 15 -9 27 -20 27 -24 0 -4 6 -8 14 -8 7 0 19 -7 26 -15
6 -8 15 -14 18 -13 4 1 25 -6 47 -16 139 -61 314 -72 460 -28 44 13 84 28 89
33 6 5 18 9 27 9 10 0 19 3 21 8 3 7 95 72 103 72 2 0 25 21 51 47 115 118
188 272 200 423 2 35 7 66 10 71 3 5 2 9 -3 9 -4 0 -8 19 -9 43 -1 55 -9 105
-17 114 -4 3 -7 16 -7 28 0 25 -69 163 -105 211 -37 49 -113 121 -158 153 -61
41 -167 89 -223 101 -27 5 -62 12 -79 16 -45 9 -158 6 -212 -6 -80 -17 -157
-42 -174 -57 -8 -7 -23 -13 -31 -13 -9 0 -18 -3 -20 -7 -1 -5 -28 -25 -58 -45
-72 -49 -190 -182 -190 -214 0 -8 -4 -14 -9 -14 -5 0 -11 -8 -14 -17 -3 -10
-17 -49 -30 -88 l-25 -70 -44 -1 c-23 -1 -209 -5 -411 -9 -202 -4 -379 -8
-392 -9 -29 -4 -48 7 -51 30 -2 10 -19 52 -40 93 -57 118 -139 211 -244 280
-30 19 -57 36 -60 37 -3 0 -23 9 -45 19 -22 9 -60 24 -85 31 l-46 13 2 173 c1
95 5 569 8 1053 3 484 6 882 7 885 5 22 2 107 -3 103 -5 -2 -4 6 0 19 4 13 7
39 6 58 -2 35 11 64 26 55 15 -9 147 52 215 99 39 27 134 122 161 161 42 61
87 157 102 215 l8 35 867 3 c477 1 867 -1 868 -5 9 -90 90 -234 181 -320 70
-66 82 -76 104 -89 153 -87 231 -109 389 -107 68 0 144 7 153 14 1 1 5 2 10 3
21 5 90 30 107 39 11 6 25 12 31 13 25 4 123 82 185 145 52 54 127 165 135
199 0 3 4 14 8 25 21 54 26 73 32 110 4 22 8 57 8 77 1 21 5 38 9 38 5 0 6 3
4 8 -3 4 -8 36 -11 72 -4 35 -12 85 -18 110 -13 57 -79 194 -115 240 -45 56
-154 160 -169 160 -3 0 -18 8 -32 18 -32 22 -146 70 -184 77 -16 3 -40 8 -55
11 -26 6 -153 7 -215 2 -16 -1 -28 -6 -28 -11 0 -4 -4 -6 -9 -3 -12 7 -113
-26 -171 -56 -160 -82 -295 -242 -339 -400 l-14 -48 -868 0 c-880 0 -875 0
-870 33 0 4 -4 7 -11 7 -6 0 -9 3 -6 6 9 8 -38 109 -81 174 -39 61 -157 180
-178 180 -7 0 -13 4 -13 8 0 20 -179 96 -254 108 -60 9 -170 11 -216 3z m3278
-334 c190 -64 294 -270 231 -458 -25 -73 -48 -109 -103 -160 -111 -101 -266
-122 -406 -54 -48 22 -140 102 -140 121 0 6 -9 22 -20 36 -11 14 -20 35 -20
48 0 12 -4 22 -8 22 -10 0 -12 12 -13 97 -1 99 34 184 105 257 99 100 242 135
374 91z m-3031 -30 c59 -28 153 -109 153 -132 0 -7 4 -13 9 -13 9 0 24 -37 38
-91 10 -40 11 -129 2 -134 -4 -3 -6 -12 -3 -20 9 -21 -51 -136 -92 -178 -75
-77 -177 -117 -282 -110 -64 4 -172 37 -172 54 0 5 -6 9 -13 9 -27 0 -115 110
-136 170 -57 167 19 352 182 439 31 17 57 29 57 26 0 -2 10 0 23 5 43 18 171
4 234 -25z m2137 -3611 c22 -2 57 -10 77 -18 39 -16 126 -79 146 -105 32 -42
72 -131 78 -176 9 -60 9 -48 -8 -155 -8 -45 -59 -129 -104 -171 -25 -22 -70
-53 -101 -67 -48 -22 -71 -27 -147 -27 -76 0 -99 4 -146 26 -134 63 -209 172
-217 316 -11 192 125 355 313 379 22 3 41 7 44 9 2 3 8 2 13 -1 6 -4 29 -8 52
-10z m-2200 -73 c74 -26 128 -63 170 -116 154 -191 76 -482 -149 -558 -70 -24
-187 -17 -257 15 -198 91 -274 324 -167 515 46 82 117 134 211 155 74 17 121
14 192 -11z m3355 -3610 c76 -21 140 -65 199 -136 54 -64 84 -213 61 -302 -51
-196 -246 -315 -443 -269 -16 4 -37 11 -46 16 -10 5 -20 6 -24 3 -3 -3 -6 -1
-6 5 0 6 -10 14 -22 17 -39 12 -132 119 -153 177 -24 66 -29 109 -24 203 3 43
63 149 112 197 49 47 122 88 158 88 10 0 20 4 23 8 7 11 115 7 165 -7z m-3409
-56 c19 -3 40 -7 45 -9 6 -2 22 -6 38 -11 15 -4 27 -11 27 -16 0 -5 7 -9 15
-9 8 0 41 -26 73 -58 193 -195 111 -529 -147 -595 -53 -14 -151 -14 -181 -1
-8 4 -21 8 -28 10 -66 13 -174 108 -209 184 -49 105 -49 208 -1 320 31 72 130
160 200 177 38 9 112 19 123 16 6 -1 26 -5 45 -8z"/>
<path d="M20885 17124 c-92 -16 -215 -60 -215 -76 0 -5 -5 -8 -11 -8 -17 0
-91 -55 -142 -106 -132 -132 -199 -295 -200 -489 0 -52 3 -81 18 -165 2 -16 7
-28 37 -106 36 -95 118 -202 213 -280 50 -41 176 -107 228 -120 15 -3 27 -11
28 -18 0 -6 2 -21 3 -34 2 -13 -1 -25 -5 -28 -5 -2 -6 -10 -3 -17 8 -23 11
-88 3 -93 -4 -2 -5 -14 -2 -27 5 -24 5 -26 1 -134 -2 -40 1 -69 6 -66 5 4 6 0
1 -6 -4 -7 -9 -333 -12 -724 -4 -661 -9 -1193 -12 -1209 0 -3 -16 -10 -33 -13
-18 -4 -39 -12 -47 -19 -8 -6 -16 -10 -17 -9 -7 5 -94 -41 -94 -49 0 -4 -5 -8
-11 -8 -30 0 -219 -188 -219 -218 0 -5 -8 -20 -19 -33 -10 -13 -24 -42 -32
-64 -7 -22 -16 -44 -20 -50 -3 -5 -10 -28 -14 -50 -5 -22 -10 -47 -12 -55 -27
-114 5 -310 71 -435 27 -51 105 -152 143 -186 43 -38 136 -99 150 -99 7 0 13
-4 13 -9 0 -5 11 -12 25 -15 13 -3 37 -11 52 -18 15 -6 37 -13 47 -15 11 -2
24 -8 31 -13 10 -8 11 -77 2 -125 -3 -11 -1 -27 3 -35 5 -8 4 -35 0 -60 -5
-25 -5 -49 0 -55 4 -5 6 -19 3 -30 -2 -11 -6 -342 -9 -735 -8 -1165 -9 -1278
-14 -1283 -3 -2 -25 -12 -50 -21 -83 -32 -120 -50 -120 -58 0 -4 -5 -8 -11 -8
-35 0 -239 -195 -239 -228 0 -5 -8 -20 -19 -33 -10 -13 -24 -42 -32 -64 -7
-22 -16 -45 -20 -50 -8 -11 -16 -43 -25 -100 -9 -56 -10 -190 -1 -230 5 -22
10 -47 12 -55 8 -35 39 -118 59 -155 27 -52 105 -152 145 -188 75 -66 220
-143 286 -153 11 -1 20 -3 20 -4 0 -14 208 -21 275 -9 256 47 473 235 555 482
11 31 24 57 30 57 5 1 150 3 320 5 171 2 513 7 760 10 248 4 558 8 689 8 239
2 239 2 242 -20 6 -35 50 -129 88 -185 32 -49 130 -158 141 -158 3 0 27 -16
54 -35 26 -19 56 -35 65 -35 9 0 16 -4 16 -8 0 -9 110 -46 170 -58 19 -4 82
-7 140 -7 91 0 118 5 193 31 48 16 113 45 144 63 86 51 201 171 243 254 19 39
37 72 40 75 3 3 7 12 9 20 2 8 10 37 17 65 7 27 14 67 16 88 1 21 6 41 10 43
5 3 6 8 4 12 -2 4 -7 41 -10 82 -4 41 -11 93 -17 115 -6 22 -11 41 -10 42 3 9
-54 122 -84 168 -127 190 -327 302 -555 309 -42 2 -183 -15 -197 -23 -2 -1
-10 -4 -18 -6 -8 -3 -22 -7 -30 -10 -8 -2 -18 -4 -20 -4 -11 0 -111 -56 -132
-75 -13 -11 -23 -17 -23 -13 0 12 -112 -98 -145 -143 -43 -59 -88 -144 -105
-200 -7 -25 -16 -49 -20 -53 -4 -4 -146 -10 -316 -12 -170 -2 -469 -7 -664
-10 -195 -3 -509 -7 -696 -10 l-341 -5 -7 31 c-7 37 -65 163 -78 167 -4 2 -8
8 -8 13 0 10 -37 55 -90 108 -76 77 -155 125 -275 166 l-60 21 3 419 c2 231 5
639 6 906 1 267 5 490 9 496 4 6 4 13 0 17 -7 7 -8 145 0 152 2 3 1 20 -3 39
-4 19 -5 36 -3 39 3 3 6 63 7 133 l1 127 48 17 c167 60 346 217 408 358 11 25
24 55 29 66 5 11 13 36 18 55 l8 35 70 2 c38 0 222 4 409 8 187 3 355 7 373 9
38 3 44 -3 62 -64 8 -25 24 -62 37 -82 13 -21 23 -42 23 -48 0 -5 5 -10 10
-10 6 0 10 -5 10 -10 0 -12 38 -57 97 -114 59 -56 71 -66 83 -66 5 0 10 -4 10
-9 0 -5 11 -12 25 -15 14 -4 25 -11 25 -16 0 -6 7 -10 15 -10 9 0 32 -8 53
-19 110 -56 306 -66 447 -23 44 13 84 28 89 33 6 5 18 9 27 9 10 0 19 3 21 8
3 7 95 72 103 72 6 0 75 71 112 116 26 31 95 152 99 174 0 3 3 12 7 20 18 44
40 171 39 225 -2 70 -21 180 -41 230 -19 49 -74 153 -94 179 -36 47 -141 146
-154 146 -7 0 -13 4 -13 10 0 5 -37 27 -82 49 -151 71 -292 89 -445 57 -169
-35 -323 -138 -424 -284 -36 -51 -88 -160 -95 -198 -3 -15 -7 -30 -9 -34 -2
-3 -57 -7 -122 -9 -264 -6 -725 -13 -760 -12 -11 1 -39 68 -35 84 1 4 -3 7 -8
7 -6 0 -10 9 -10 20 0 11 -4 20 -9 20 -5 0 -11 10 -15 23 -10 41 -96 143 -181
214 -43 37 -145 90 -216 113 l-65 22 3 251 c1 139 4 563 7 942 2 380 5 695 6
700 1 6 1 15 0 20 -6 27 -4 51 5 57 6 5 6 8 -2 8 -8 0 -9 9 -4 28 5 15 5 36 1
47 -4 11 -5 24 -3 28 3 4 5 60 5 125 0 108 9 149 28 137 15 -9 147 52 215 99
51 36 139 128 178 188 20 31 37 59 37 62 0 4 9 25 19 49 11 23 24 58 29 77 l8
35 867 3 c477 1 867 -1 868 -5 2 -24 10 -54 20 -79 7 -16 13 -31 13 -34 1 -3
14 -27 30 -55 36 -62 90 -130 135 -170 19 -16 40 -36 47 -42 7 -7 17 -13 23
-13 6 0 11 -4 11 -10 0 -5 6 -10 14 -10 8 0 16 -3 18 -7 9 -22 162 -80 238
-91 75 -10 261 -5 278 9 1 1 5 2 10 3 21 5 90 30 107 39 11 6 23 11 26 12 3 0
35 19 72 43 91 59 178 158 232 265 24 48 43 87 41 87 -2 0 3 21 11 48 31 99
21 319 -18 402 -7 14 -13 31 -15 38 -5 25 -85 152 -96 152 -6 0 -9 3 -5 6 6 6
-96 114 -108 114 -3 0 -15 9 -27 20 -12 11 -28 20 -35 20 -7 0 -13 3 -13 8 0
4 -12 12 -27 19 -90 39 -122 51 -158 58 -22 5 -47 10 -55 12 -27 7 -164 6
-211 -1 -237 -34 -463 -220 -539 -443 l-25 -73 -866 0 -866 0 -27 74 c-47 128
-171 287 -261 333 -16 9 -32 19 -35 23 -4 6 -68 37 -125 60 -19 8 -55 17 -102
26 -57 11 -175 10 -238 -2z m3302 -329 c72 -21 192 -116 193 -152 0 -7 4 -13
9 -13 9 0 25 -39 37 -91 22 -90 0 -236 -43 -287 -10 -11 -26 -32 -37 -46 -27
-37 -113 -91 -171 -109 -31 -9 -78 -13 -122 -11 -91 4 -178 45 -245 114 -70
73 -91 126 -92 235 -1 87 4 135 14 145 3 3 14 23 25 45 25 50 94 119 149 147
86 45 181 52 283 23z m-3035 -28 c72 -33 143 -98 176 -162 30 -58 34 -79 34
-160 0 -73 -5 -95 -37 -160 -114 -227 -414 -268 -595 -82 -49 51 -92 169 -91
252 0 29 6 55 13 55 4 0 5 6 2 13 -9 23 55 130 104 176 47 43 110 78 167 91
62 15 169 4 227 -23z m2143 -3613 c101 -8 214 -93 267 -202 30 -61 33 -75 33
-157 0 -81 -4 -97 -33 -156 -38 -79 -100 -140 -180 -177 -48 -23 -71 -27 -147
-27 -78 0 -98 4 -153 29 -94 44 -174 137 -200 236 -14 51 -7 184 11 229 49
121 165 211 292 227 22 3 41 7 44 9 2 3 8 2 13 -1 6 -4 30 -8 53 -10z m-2240
-59 c106 -27 209 -106 250 -190 11 -22 20 -42 20 -45 1 -3 5 -20 9 -39 39
-162 -33 -325 -176 -397 -27 -14 -53 -22 -58 -19 -5 3 -11 1 -14 -3 -7 -11
-142 -16 -159 -5 -6 4 -20 9 -30 10 -33 5 -99 44 -142 84 -54 49 -103 147
-109 217 -3 29 -8 57 -11 62 -3 6 -2 10 2 10 5 0 9 12 10 28 4 85 90 214 170
256 68 35 170 48 238 31z m3406 -3628 c59 -18 142 -73 179 -119 91 -117 102
-295 24 -419 -85 -136 -244 -201 -404 -165 -48 11 -115 51 -161 96 -147 144
-149 371 -4 515 45 46 131 95 164 95 11 0 22 4 25 8 8 13 118 6 177 -11z
m-3426 -51 c55 -9 72 -14 115 -36 72 -37 169 -147 162 -182 -1 -5 3 -8 10 -8
6 0 8 -3 5 -6 -3 -4 -2 -15 4 -25 5 -10 11 -47 13 -81 15 -276 -255 -455 -504
-335 -25 11 -60 35 -79 52 -35 32 -92 108 -95 128 -1 7 -5 18 -10 25 -9 15
-17 62 -20 117 -3 73 32 178 78 230 14 17 26 32 26 35 0 9 105 70 131 76 39
10 113 20 124 17 6 -1 24 -4 40 -7z"/>
<path d="M8847 17124 c-3 -3 -38 -8 -78 -10 -40 -2 -78 -9 -84 -14 -7 -5 -14
-8 -17 -5 -3 3 -24 -1 -46 -9 -23 -9 -42 -13 -42 -11 0 2 -35 -14 -77 -36
-130 -68 -214 -145 -286 -264 -23 -38 -43 -73 -43 -77 -1 -5 -3 -11 -4 -15 -1
-5 -2 -11 -1 -15 0 -5 -4 -8 -11 -8 -6 0 -9 -3 -5 -6 3 -3 1 -18 -5 -33 -5
-14 -12 -42 -15 -61 -3 -19 -8 -53 -12 -75 -8 -46 3 -170 19 -235 63 -241 282
-451 518 -496 8 -1 16 -5 19 -8 3 -2 4 -69 3 -148 -1 -133 -1 -157 0 -190 0
-7 -2 -314 -5 -683 -3 -368 -7 -813 -8 -988 -3 -332 -4 -336 -45 -337 -25 0
-147 -65 -207 -110 -65 -50 -122 -107 -161 -166 -27 -39 -95 -174 -89 -174 2
0 -1 -15 -6 -32 -42 -146 -25 -338 41 -472 52 -102 57 -110 122 -178 99 -103
231 -180 342 -200 18 -3 20 -10 17 -83 -3 -87 -3 -83 1 -138 2 -21 1 -40 -2
-42 -4 -2 -5 -19 -3 -37 2 -18 4 -37 4 -43 -1 -21 -12 -1358 -14 -1667 -2
-180 -5 -330 -9 -333 -3 -3 -18 -8 -34 -11 -46 -8 -177 -77 -236 -125 -74 -60
-144 -149 -187 -238 -19 -41 -36 -82 -38 -90 -1 -9 -9 -47 -16 -86 -14 -71
-14 -181 -2 -245 4 -19 8 -39 9 -45 1 -5 4 -14 7 -20 4 -5 12 -28 19 -50 19
-59 49 -113 102 -180 41 -52 112 -125 122 -125 2 0 27 -15 55 -34 48 -33 138
-72 184 -80 12 -3 22 -5 22 -6 0 -6 53 -12 130 -15 232 -10 436 89 585 285 26
34 72 123 85 162 4 13 9 28 10 33 16 48 32 169 30 225 -4 79 -10 115 -33 185
-9 28 -17 52 -17 55 -3 10 -30 65 -35 70 -3 3 -11 17 -19 33 -8 15 -18 27 -23
27 -4 0 -8 6 -8 13 0 7 -8 20 -19 29 -10 8 -20 20 -22 25 -2 5 -34 34 -71 65
-66 56 -184 120 -243 132 l-31 7 2 227 c12 1570 15 1988 15 2050 0 70 2 74 27
84 62 24 178 83 190 95 7 7 17 13 22 13 15 0 164 154 180 185 8 17 17 32 20
35 15 13 61 134 76 196 15 67 20 184 10 251 -27 187 -156 380 -318 479 -32 19
-60 35 -63 34 -3 0 -19 7 -36 16 -18 9 -52 22 -78 30 l-47 13 2 248 c9 1075
16 1995 16 2033 0 49 14 65 64 75 18 3 51 16 75 30 24 13 58 31 76 40 45 24
186 164 206 205 18 37 45 75 53 73 5 0 23 -3 39 -6 17 -3 86 -17 155 -30 69
-14 143 -28 164 -31 21 -4 48 -8 60 -11 24 -5 56 -11 136 -25 30 -6 64 -12 75
-14 127 -28 220 -44 227 -40 4 3 8 0 8 -6 0 -6 3 -9 8 -7 4 3 36 -1 72 -9 36
-7 81 -16 100 -19 47 -7 78 -13 98 -19 9 -3 33 -7 52 -10 19 -3 60 -10 90 -16
30 -6 65 -13 78 -15 12 -3 32 -7 45 -9 12 -3 38 -7 57 -11 19 -3 42 -7 50 -9
8 -1 33 -6 55 -10 22 -4 95 -19 163 -32 68 -13 128 -22 133 -19 5 4 9 2 9 -4
0 -5 8 -10 18 -9 9 0 31 -3 47 -6 17 -4 53 -11 80 -16 28 -5 61 -12 75 -15 14
-3 39 -7 55 -10 17 -3 53 -10 80 -15 28 -6 61 -12 74 -15 30 -6 28 -1 35 -60
20 -173 125 -356 268 -470 31 -25 126 -79 158 -90 3 -1 12 -4 20 -8 25 -9 90
-29 105 -31 8 -1 17 -4 19 -7 7 -6 20 -165 31 -369 2 -47 5 -85 6 -85 0 0 3
-34 5 -75 2 -41 6 -80 8 -87 3 -7 -15 -19 -42 -30 -231 -87 -405 -297 -440
-528 -8 -53 -8 -178 0 -236 l7 -47 -137 -68 c-75 -38 -139 -71 -142 -74 -13
-13 -150 -79 -150 -73 0 5 -4 3 -8 -3 -4 -7 -29 -23 -57 -36 -57 -28 -348
-179 -414 -215 l-44 -24 -21 23 c-52 58 -187 150 -241 164 -5 2 -29 10 -52 18
-137 50 -338 40 -488 -24 -123 -53 -252 -167 -323 -284 -23 -39 -42 -73 -42
-77 0 -4 -5 -20 -12 -36 -6 -15 -12 -34 -14 -42 -1 -7 -8 -35 -14 -62 -12 -49
-15 -191 -6 -239 3 -14 8 -38 11 -55 8 -41 35 -114 57 -150 9 -16 25 -45 34
-64 27 -53 146 -165 223 -211 118 -70 204 -93 351 -94 91 0 140 5 179 17 30 9
60 17 66 17 6 0 40 -42 75 -92 35 -51 68 -94 72 -96 4 -2 8 -9 8 -16 0 -7 8
-21 19 -32 10 -11 24 -30 30 -43 7 -12 19 -30 26 -39 8 -9 45 -61 82 -114 123
-176 208 -299 218 -315 6 -9 15 -24 22 -32 7 -9 62 -88 123 -176 61 -88 127
-182 146 -210 134 -190 214 -308 214 -315 0 -5 3 -10 8 -12 7 -3 16 -15 79
-108 21 -30 41 -59 46 -65 5 -5 39 -55 77 -110 38 -55 72 -105 77 -110 4 -6
28 -39 52 -75 24 -36 62 -92 85 -125 22 -33 44 -61 48 -63 5 -2 8 -10 8 -17 0
-7 4 -15 8 -17 5 -1 42 -52 83 -113 41 -60 79 -114 86 -120 9 -8 4 -21 -23
-55 -85 -110 -137 -261 -137 -400 0 -117 4 -148 28 -225 131 -417 628 -608
1000 -384 91 56 188 143 201 182 3 9 9 17 13 17 12 0 90 160 97 195 3 16 7 31
9 35 9 14 18 108 17 175 0 65 -2 84 -16 143 -4 12 -8 32 -11 44 -7 33 -79 178
-87 178 -5 0 -8 6 -8 13 0 16 -101 122 -150 159 -114 83 -248 130 -388 133
-92 2 -225 -18 -249 -37 -8 -6 -18 -3 -32 11 -17 17 -126 170 -156 220 -5 9
-22 32 -37 52 -16 20 -28 41 -28 47 0 6 -4 12 -8 14 -8 3 -72 92 -182 253 -25
36 -64 92 -87 123 -23 31 -43 63 -43 70 0 6 -4 12 -8 12 -4 0 -16 13 -25 30
-10 16 -23 35 -30 42 -12 13 -103 145 -123 179 -6 11 -18 27 -27 37 -10 10
-17 23 -17 29 0 6 -7 13 -15 17 -8 3 -15 11 -15 18 0 7 -10 25 -22 39 -13 14
-27 33 -33 42 -12 19 -127 188 -138 202 -35 44 -97 136 -97 144 0 5 -4 11 -8
13 -5 2 -44 55 -87 118 -44 63 -82 117 -85 120 -3 3 -9 13 -15 22 -5 9 -23 36
-40 60 -106 152 -136 194 -142 204 -5 5 -12 17 -18 26 -5 9 -50 74 -100 144
-49 71 -91 131 -93 135 -2 4 3 13 10 20 40 40 113 161 125 204 1 6 10 35 18
65 9 30 18 66 20 80 9 53 4 206 -6 249 -2 8 16 26 44 42 26 16 47 25 47 21 0
-4 4 -2 8 3 4 6 39 26 77 45 39 19 73 40 77 45 4 6 8 7 8 3 0 -3 35 13 78 36
42 22 109 57 147 76 39 19 72 38 73 43 2 4 12 7 22 7 9 0 23 7 30 15 7 8 16
13 20 10 5 -3 10 -2 12 2 1 5 69 41 149 82 l145 73 60 -58 c81 -80 97 -92 184
-135 91 -44 107 -49 221 -67 68 -10 158 -6 244 12 53 11 161 59 217 97 154
104 254 252 294 434 13 64 16 223 3 265 -4 14 -13 43 -19 65 -33 116 -106 247
-177 320 -89 92 -228 169 -342 191 -25 5 -30 19 -35 104 -5 90 -13 211 -21
320 -3 36 -7 100 -10 143 l-4 77 77 36 c200 95 342 274 388 489 3 17 7 73 9
125 3 103 -15 194 -56 285 -12 28 -22 53 -21 58 1 4 -3 7 -8 7 -6 0 -10 5 -10
11 0 11 -47 76 -97 132 -48 54 -233 183 -233 162 0 -3 -10 0 -22 7 -13 7 -25
13 -28 13 -3 1 -39 9 -80 18 -103 23 -237 18 -340 -15 -163 -50 -318 -176
-396 -321 -19 -37 -26 -42 -56 -41 -31 1 -124 16 -178 29 -14 4 -32 7 -40 7
-8 0 -22 2 -30 5 -8 3 -24 7 -35 9 -11 1 -33 5 -50 8 -16 4 -46 9 -65 12 -19
3 -66 12 -105 21 -38 8 -81 16 -95 18 -14 2 -47 9 -75 15 -27 5 -63 12 -80 14
-16 3 -66 12 -110 21 -44 9 -89 18 -100 20 -11 2 -33 6 -50 10 -16 3 -46 8
-65 10 -19 2 -35 4 -35 5 0 2 -21 7 -110 23 -113 21 -345 66 -375 72 -14 3
-38 8 -55 10 -54 10 -200 37 -220 41 -11 3 -45 9 -75 15 -30 6 -87 17 -127 24
-39 8 -89 18 -110 21 -42 7 -65 11 -73 14 -8 3 -24 7 -38 8 -7 1 -12 10 -11
20 1 9 0 19 -1 22 -1 3 -3 19 -4 35 -14 161 -116 336 -267 457 -80 65 -236
125 -341 132 -25 2 -50 6 -55 9 -6 4 -13 4 -16 1z m111 -370 c173 -85 249
-266 191 -451 -8 -24 -18 -43 -22 -43 -5 0 -6 -4 -3 -9 8 -12 -68 -96 -118
-130 -53 -36 -100 -51 -162 -52 -43 0 -84 5 -91 11 -2 2 -6 3 -10 4 -35 8 -83
29 -83 37 0 5 -6 9 -14 9 -23 0 -106 98 -134 158 -23 49 -27 70 -26 147 0 75
5 100 27 148 40 87 126 164 227 201 8 3 48 4 88 2 54 -3 88 -11 130 -32z
m3631 -689 c97 -24 194 -103 238 -194 23 -48 27 -69 27 -146 1 -81 -2 -96 -31
-155 -18 -36 -40 -74 -50 -85 -39 -43 -127 -101 -168 -111 -70 -17 -121 -20
-165 -11 -159 32 -257 121 -295 267 -26 103 5 228 81 317 82 98 238 149 363
118z m193 -2026 c69 -28 153 -103 182 -163 91 -193 -33 -433 -256 -494 -64
-18 -164 -6 -232 27 -183 88 -246 263 -161 449 25 55 124 162 150 162 8 0 15
4 15 8 0 5 6 9 13 10 6 1 35 8 62 15 67 20 155 14 227 -14z m-3807 -974 c28
-13 65 -36 84 -51 33 -29 91 -105 95 -127 2 -7 8 -25 15 -41 29 -72 16 -197
-30 -287 -25 -50 -95 -117 -146 -140 -42 -19 -158 -40 -168 -30 -3 2 -18 5
-33 6 -96 2 -220 94 -273 201 -28 56 -33 77 -34 150 -2 46 2 84 7 84 5 0 6 5
3 11 -11 16 53 134 89 166 77 68 100 79 196 90 25 3 46 6 48 8 7 7 102 -19
147 -40z m1623 -97 c17 -10 35 -17 38 -17 12 2 114 -77 114 -88 0 -7 4 -13 8
-13 16 0 61 -99 71 -156 17 -95 0 -186 -48 -264 -23 -37 -102 -109 -136 -125
-73 -32 -86 -35 -150 -35 -84 1 -89 1 -110 9 -153 57 -243 165 -259 309 -2 12
-6 25 -9 28 -4 4 -4 11 0 17 3 5 7 27 8 48 3 43 43 149 56 149 5 0 9 6 9 13 0
16 86 92 126 113 15 8 41 17 58 20 16 3 33 7 36 10 12 13 157 -1 188 -18z
m2483 -3546 c163 -78 241 -239 202 -415 -30 -132 -158 -255 -286 -274 -93 -13
-141 -7 -227 30 -52 22 -140 100 -140 125 0 6 -4 12 -9 12 -5 0 -19 26 -32 57
-35 87 -32 197 8 284 47 102 150 189 242 206 14 2 27 6 29 8 2 2 36 2 75 1 57
-2 86 -9 138 -34z m-4201 -6 c85 -9 187 -73 240 -151 133 -194 50 -463 -170
-550 -48 -19 -192 -29 -219 -15 -9 4 -40 18 -70 31 -125 55 -212 196 -206 334
6 126 50 207 161 294 39 31 178 74 209 65 6 -1 30 -5 55 -8z"/>
</g>
</svg>
